<svg width="18" height="22" viewBox="0 0 18 22" fill="none" xmlns="http://www.w3.org/2000/svg">
<path d="M3 1.27778C3 0.848223 3.58579 0.5 4 0.5C4.41421 0.5 5 0.848223 5 1.27778V2.83333H3V1.27778Z" fill="#6E7491"/>
<path d="M13 1.27778C13 0.848223 13.5858 0.5 14 0.5C14.4142 0.5 15 0.848223 15 1.27778V2.83333H13V1.27778Z" fill="#6E7491"/>
<path fill-rule="evenodd" clip-rule="evenodd" d="M3 2.83333H0.75C0.335786 2.83333 0 3.18156 0 3.61111V20.7222C0 21.1518 0.335787 21.5 0.75 21.5H17.25C17.6642 21.5 18 21.1518 18 20.7222V3.61111C18 3.18156 17.6642 2.83333 17.25 2.83333H15H13H5H3ZM16.5 7.5H1.5V19.9444H16.5V7.5Z" fill="#6E7491"/>
<path d="M3 11C3 10.1716 3.67157 9.5 4.5 9.5C5.32843 9.5 6 10.1716 6 11C6 11.8284 5.32843 12.5 4.5 12.5C3.67157 12.5 3 11.8284 3 11Z" fill="#6E7491"/>
<path d="M15 14C15 13.1716 14.3284 12.5 13.5 12.5C12.6716 12.5 12 13.1716 12 14C12 14.8284 12.6716 15.5 13.5 15.5C14.3284 15.5 15 14.8284 15 14Z" fill="#6E7491"/>
</svg>
